<svg width="32" height="32" viewBox="0 0 32 32" fill="none" xmlns="http://www.w3.org/2000/svg">
<path d="M22 26.5C15 30.7 7.5 25.1667 6 22L26.5 10C28.8333 13.8333 29.5 22 22 26.5Z" fill="#6EC9CB"/>
<path d="M12 13.5V5C4.80002 7 3.66669 14.5 4.00002 18L12 13.5Z" fill="#A695E7"/>
<path d="M16 4V15.5L26 10C24.8 5.2 18.8333 4 16 4Z" fill="#EDA86C"/>
<path fill-rule="evenodd" clip-rule="evenodd" d="M4.73731 22.4838C4.47409 22.0081 4.63952 21.4072 5.11231 21.1341L15 15.4228V4C15 3.44772 15.4477 3 16 3C18.2779 3.00026 20.5159 3.59907 22.4896 4.73644C24.4633 5.87382 26.1034 7.50983 27.2458 9.48061C28.3881 11.4514 28.9926 13.6877 28.9986 15.9657C29.0046 18.2436 28.412 20.4831 27.2801 22.4599C26.1481 24.4367 24.5166 26.0813 22.549 27.2291C20.5814 28.3769 18.3467 28.9875 16.0688 28.9998C13.7909 29.0121 11.5498 28.4256 9.56988 27.2991C7.58998 26.1727 5.94084 24.5457 4.78764 22.5813C4.7689 22.5493 4.75214 22.5168 4.73731 22.4838ZM17 5.04567V14.2675L24.9846 9.65549C24.0671 8.35593 22.8761 7.2675 21.491 6.4693C20.111 5.67403 18.5783 5.18994 17 5.04567ZM25.9849 11.3874L16.5155 16.8571C16.5049 16.8635 16.4941 16.8697 16.4833 16.8757L7.01348 22.3456C7.9428 23.6615 9.1522 24.7604 10.5589 25.5608C12.2342 26.514 14.1306 27.0102 16.058 26.9998C17.9855 26.9894 19.8764 26.4728 21.5413 25.5016C23.2062 24.5304 24.5867 23.1387 25.5445 21.4661C26.5023 19.7934 27.0037 17.8984 26.9986 15.9709C26.9944 14.384 26.647 12.8209 25.9849 11.3874Z" fill="#334747"/>
<path fill-rule="evenodd" clip-rule="evenodd" d="M12.5777 3.87122C12.8425 4.05867 13 4.363 13 4.6875V13.6875C13 14.0445 12.8097 14.3743 12.5008 14.5531L4.70076 19.0656C4.41996 19.228 4.0778 19.2442 3.78295 19.1089C3.4881 18.9736 3.2772 18.7037 3.21723 18.3849C3.06922 17.5979 2.99648 16.7987 3 15.998C2.99883 13.3101 3.83165 10.6881 5.38363 8.4935C6.93611 6.29819 9.13169 4.63884 11.6674 3.74445C11.9734 3.6365 12.3128 3.68377 12.5777 3.87122ZM11 6.20205C9.41883 7.00755 8.04945 8.1877 7.01656 9.64828C5.70315 11.5055 4.99855 13.7246 5 15.9994L4.99999 16.0046C4.99912 16.1948 5.00335 16.3848 5.01268 16.5746L11 13.1107V6.20205Z" fill="#334747"/>
</svg>
