<svg width="32" height="32" viewBox="0 0 32 32" fill="none" xmlns="http://www.w3.org/2000/svg">
<path d="M5 6C5 4.89543 5.89543 4 7 4H25C26.1046 4 27 4.89543 27 6V27C27 28.1046 26.1046 29 25 29H7C5.89543 29 5 28.1046 5 27V6Z" fill="white"/>
<path fill-rule="evenodd" clip-rule="evenodd" d="M25 6H7L7 27H25V6ZM7 4C5.89543 4 5 4.89543 5 6V27C5 28.1046 5.89543 29 7 29H25C26.1046 29 27 28.1046 27 27V6C27 4.89543 26.1046 4 25 4H7Z" fill="#FFC000"/>
<path fill-rule="evenodd" clip-rule="evenodd" d="M25 6H7L7 27H25V6ZM7 4C5.89543 4 5 4.89543 5 6V27C5 28.1046 5.89543 29 7 29H25C26.1046 29 27 28.1046 27 27V6C27 4.89543 26.1046 4 25 4H7Z" fill="black" fill-opacity="0.32"/>
<path d="M20.7071 19.7071C20.8946 19.5196 21 19.2652 21 19C21 18.7348 20.8946 18.4804 20.7071 18.2929C20.5196 18.1054 20.2652 18 20 18H12C11.7348 18 11.4804 18.1054 11.2929 18.2929C11.1054 18.4804 11 18.7348 11 19C11 19.2652 11.1054 19.5196 11.2929 19.7071C11.4804 19.8946 11.7348 20 12 20H20C20.2652 20 20.5196 19.8946 20.7071 19.7071Z" fill="#016AA2"/>
<path d="M12 14H20C20.2652 14 20.5196 14.1054 20.7071 14.2929C20.8946 14.4804 21 14.7348 21 15C21 15.2652 20.8946 15.5196 20.7071 15.7071C20.5196 15.8946 20.2652 16 20 16H12C11.7348 16 11.4804 15.8946 11.2929 15.7071C11.1054 15.5196 11 15.2652 11 15C11 14.7348 11.1054 14.4804 11.2929 14.2929C11.4804 14.1054 11.7348 14 12 14Z" fill="#016AA2"/>
<path d="M10 8C10 4.68629 12.6863 2 16 2C19.3137 2 22 4.68629 22 8V9.00885C22 9.55625 21.5562 10 21.0088 10H10.9912C10.4438 10 10 9.55625 10 9.00885V8Z" fill="#C2C2C2"/>
<path fill-rule="evenodd" clip-rule="evenodd" d="M12 8H20C20 5.79086 18.2091 4 16 4C13.7909 4 12 5.79086 12 8ZM16 2C12.6863 2 10 4.68629 10 8V9.00885C10 9.55625 10.4438 10 10.9912 10H21.0088C21.5562 10 22 9.55625 22 9.00885V8C22 4.68629 19.3137 2 16 2Z" fill="black" fill-opacity="0.32"/>
</svg>
