<svg width="32" height="32" viewBox="0 0 32 32" fill="none" xmlns="http://www.w3.org/2000/svg">
<path d="M17.9225 2.23123C17.7992 2.12874 17.6531 2.05739 17.4965 2.0232C17.3399 1.989 17.1773 1.99296 17.0225 2.03475C16.8678 2.07654 16.7253 2.15493 16.6072 2.2633C16.489 2.37168 16.3987 2.50687 16.3438 2.65748L13.5938 10.2087L10.5737 7.28248C10.4723 7.18411 10.3512 7.10835 10.2184 7.06019C10.0856 7.01203 9.94403 6.99257 9.80313 7.00308C9.66223 7.01359 9.52516 7.05384 9.40095 7.12117C9.27674 7.18851 9.1682 7.2814 9.0825 7.39373C6.375 10.9412 5 14.51 5 18C5 20.9174 6.15893 23.7153 8.22183 25.7782C10.2847 27.8411 13.0826 29 16 29C18.9174 29 21.7153 27.8411 23.7782 25.7782C25.8411 23.7153 27 20.9174 27 18C27 10.5687 20.6513 4.49998 17.9225 2.23123Z" fill="#FF3B38"/>
<path opacity="0.72" d="M14.938 16.0563C16.8422 15.6185 18.4089 14.2826 19.1458 12.4836C20.3348 14.3774 21 16.2492 21 18C21 19.3261 20.4732 20.5979 19.5355 21.5356C18.5979 22.4733 17.3261 23 16 23C14.6739 23 13.4021 22.4733 12.4645 21.5356C11.5268 20.5979 11 19.3261 11 18C11 17.3197 11.0974 16.5744 11.3275 15.7644C12.4558 16.2245 13.7151 16.3374 14.938 16.0563Z" fill="#FFC000"/>
<path fill-rule="evenodd" clip-rule="evenodd" d="M10.5737 7.28254C10.4723 7.18417 10.3512 7.10841 10.2184 7.06025C10.0856 7.01209 9.94403 6.99263 9.80313 7.00314C9.66223 7.01365 9.52516 7.0539 9.40095 7.12123C9.27674 7.18857 9.1682 7.28146 9.0825 7.39379C6.375 10.9413 5 14.51 5 18C5 20.9174 6.15893 23.7153 8.22183 25.7782C10.2847 27.8411 13.0826 29 16 29C18.9174 29 21.7153 27.8411 23.7782 25.7782C25.8411 23.7153 27 20.9174 27 18C27 10.5688 20.6513 4.50004 17.9225 2.23129C17.7992 2.1288 17.6531 2.05745 17.4965 2.02326C17.3399 1.98906 17.1773 1.99303 17.0225 2.03481C16.8678 2.0766 16.7253 2.15499 16.6072 2.26337C16.489 2.37174 16.3987 2.50693 16.3438 2.65754L13.5938 10.2088L10.5737 7.28254ZM17.7243 4.71129L15.473 10.8932C15.2411 11.53 14.7024 12.0061 14.0418 12.158C13.3813 12.3098 12.6888 12.1168 12.202 11.6451L10.0081 9.51937C7.9515 12.4869 7 15.3307 7 18C7 20.387 7.94821 22.6762 9.63604 24.364C11.3239 26.0518 13.6131 27 16 27C18.3869 27 20.6761 26.0518 22.364 24.364C24.0518 22.6762 25 20.387 25 18C25 14.853 23.6496 11.8798 21.851 9.33367C20.4989 7.41969 18.955 5.83467 17.7243 4.71129Z" fill="black" fill-opacity="0.32"/>
</svg>
