<svg width="32" height="32" viewBox="0 0 32 32" fill="none" xmlns="http://www.w3.org/2000/svg">
<path d="M21 12C21 11.4477 21.4477 11 22 11H26C26.5523 11 27 11.4477 27 12V26C27 26.5523 26.5523 27 26 27H22C21.4477 27 21 26.5523 21 26V12Z" fill="#5DC6FE"/>
<path d="M13 16C13 15.4477 13.4477 15 14 15H18C18.5523 15 19 15.4477 19 16V26C19 26.5523 18.5523 27 18 27H14C13.4477 27 13 26.5523 13 26V16Z" fill="#5DC6FE"/>
<path d="M5 20C5 19.4477 5.44772 19 6 19H10C10.5523 19 11 19.4477 11 20V26C11 26.5523 10.5523 27 10 27H6C5.44772 27 5 26.5523 5 26V20Z" fill="#5DC6FE"/>
<path fill-rule="evenodd" clip-rule="evenodd" d="M22.0513 1.6838C22.2259 1.15986 22.7923 0.876696 23.3162 1.05134L26.3162 2.05134C26.8401 2.22599 27.1233 2.79231 26.9487 3.31625L25.9487 6.31626C25.774 6.8402 25.2077 7.12336 24.6837 6.94871C24.1598 6.77406 23.8766 6.20774 24.0513 5.6838L24.2879 4.97412L6.44719 13.8945C5.95321 14.1414 5.35254 13.9412 5.10555 13.4472C4.85856 12.9533 5.05878 12.3526 5.55276 12.1056L23.3934 3.18527L22.6837 2.94871C22.1598 2.77406 21.8766 2.20774 22.0513 1.6838Z" fill="#E63946"/>
<path fill-rule="evenodd" clip-rule="evenodd" d="M3 29C3 28.4477 3.44772 28 4 28H28C28.5523 28 29 28.4477 29 29C29 29.5523 28.5523 30 28 30H4C3.44772 30 3 29.5523 3 29Z" fill="#1F1F1F"/>
</svg>
