<svg fill="none" height="48" viewBox="0 0 192 48" width="192" xmlns="http://www.w3.org/2000/svg"><path d="m45 36.0023h1.5c.8284 0 1.5-.6716 1.5-1.5v-21c0-.8285-.6716-1.5-1.5-1.5h-1.5z" fill="#dceefd"/><path d="m41.25 39.0023h1.5c.8284 0 1.5-.6716 1.5-1.5v-27c0-.82847-.6716-1.50004-1.5-1.50004h-1.5z" fill="#cae6fc"/><path d="m0 3.00226c0-1.65686 1.34315-3.0000017 3-3.0000017h26.6459c2.2301 0 3.6806 2.3469417 2.6833 4.3416417l-9.1584 18.3167c-.4223.8446-.4223 1.8387 0 2.6833l9.1584 18.3167c.9973 1.9947-.4532 4.3417-2.6833 4.3417h-26.6459c-1.65685 0-3-1.3432-3-3z" fill="#e63946"/><path clip-rule="evenodd" d="m32.25 42.0023h6.25c1.1046 0 2-.8955 2-2v-32.00004c0-1.10457-.8954-2-2-2h-6.25l-8.3292 16.65834c-.4223.8446-.4223 1.8387 0 2.6833z" fill="#b8ddfb" fill-rule="evenodd"/><g fill="#000"><path d="m187.529 24.241c0-.0824-.099-.1273-.164-.0776-.235.177-.479.2974-.734.3611-.315.063-.843.1261-1.583.1891l-1.299.0945c-1.024.063-1.741.2126-2.15.4489-.52.3623-.78.8191-.78 1.3704 0 .567.22 1.0159.661 1.3467.378.315 1.001.4725 1.867.4725 1.181 0 2.079-.2205 2.693-.6615.993-.6773 1.489-1.8587 1.489-3.5441zm-6.297-3.6102c-.264.4853-.672.964-1.224.964h-.756c-.546 0-1.009-.4456-.885-.9777.149-.6348.462-1.191.94-1.6686.945-.945 2.638-1.4176 5.08-1.4176 2.347 0 4.008.4883 4.985 1.4649.11.1103.205.2284.283.3544.095.126.174.2599.237.4017.063.126.118.2441.165.3544.047.0945.087.2205.118.378.032.1575.055.2757.071.3544.016.0788.024.2048.024.378.015.1733.023.2836.023.3308v.3544.3072 4.6309c0 .5463.063.912.187 1.097.029.0434.064.0832.1.1209.127.1332.315.1997.564.1997.2 0 .425.1641.425.3638v.7441c0 .3455-.242.6479-.585.6885-.262.031-.524.0465-.785.0465-.788 0-1.355-.1338-1.701-.4016-.471-.3439-1.39-.5854-1.87-.2549-.268.1845-.55.3324-.847.4439-.662.2678-1.654.4017-2.977.4017-1.56 0-2.71-.2599-3.45-.7797-.945-.6458-1.418-1.5831-1.418-2.8117 0-.9135.292-1.6617.875-2.2445.504-.5356 1.26-.9136 2.268-1.1341.346-.0788 1.213-.1812 2.599-.3072l1.346-.1181c1.15-.0945 1.875-.2836 2.174-.5671.252-.2205.378-.5277.378-.9214 0-.6458-.323-1.1578-.969-1.5358-.582-.2993-1.323-.4489-2.22-.4489-1.072 0-1.883.1654-2.434.4962-.323.1859-.564.4238-.721.7135z"/><path d="m168.168 21.0475c0 .8735 1.041 1.3272 1.681.7323l3.772-3.5086c.185-.1721.428-.2678.681-.2678h.152c.912 0 1.348 1.1218.675 1.7378l-3.445 3.1523c-.422.386-.435 1.0466-.028 1.4487l3.996 3.9528c.636.6284.191 1.711-.703 1.711h-.595c-.269 0-.527-.1087-.716-.3015l-3.755-3.8474c-.626-.6418-1.715-.1983-1.715.6984v2.4505c0 .5523-.448 1-1 1h-.741c-.552 0-1-.4477-1-1v-10.0026c0-.5522.448-1 1-1h.741c.552 0 1 .4478 1 1z"/><path d="m159.439 27.1882c.236-.4476.637-.8444 1.143-.8444h.837c.594 0 1.07.5225.872 1.0822-.159.4468-.386.85-.683 1.2097-.504.63-1.15 1.0868-1.937 1.3703-.819.2993-2.103.4489-3.851.4489-1.197 0-2.261-.1102-3.19-.3307-.914-.2206-1.709-.6695-2.386-1.3468-1.087-1.0868-1.631-2.6226-1.631-4.6073 0-2.0792.575-3.6937 1.725-4.8435 1.182-1.1814 2.961-1.7721 5.34-1.7721 2.457 0 4.284.5986 5.481 1.7957 1.04 1.0711 1.56 2.6935 1.56 4.8672 0 .1957-.159.3544-.355.3544h-10.726c-.079 0-.142.0635-.142.1418 0 1.2128.323 2.1658.969 2.8588.441.4411.921.7246 1.441.8506s1.15.189 1.89.189c1.244 0 2.142-.1575 2.694-.4725.429-.2479.745-.565.949-.9513zm-7.732-5.2642c-.175.5483.298 1.0411.873 1.0411h6.229c.563 0 1.032-.4707.896-1.0169-.171-.6851-.505-1.2439-1.003-1.6765-.661-.5828-1.669-.8742-3.024-.8742-1.244 0-2.229.315-2.953.945-.485.443-.824.9701-1.018 1.5815z"/><path d="m140.514 20.8936c0-.5523-.448-1-1-1h-2.662c-.522 0-.946-.4231-.946-.9451 0-.5219.424-.9451.946-.9451h10.065c.522 0 .945.4232.945.9451 0 .522-.423.9451-.945.9451h-2.663c-.552 0-1 .4477-1 1v8.1124c0 .5523-.447 1-1 1h-.74c-.553 0-1-.4477-1-1z"/><path d="m133.408 19.4211c1.166 1.1656 1.749 2.6935 1.749 4.5836 0 1.8902-.583 3.4181-1.749 4.5837-1.244 1.2444-3.087 1.8665-5.528 1.8665-2.442 0-4.285-.6221-5.529-1.8665-1.166-1.1656-1.749-2.6935-1.749-4.5837 0-1.8901.583-3.418 1.749-4.5836 1.244-1.2444 3.087-1.8666 5.529-1.8666 2.441 0 4.284.6222 5.528 1.8666zm-2.457 1.0396c-.74-.7088-1.764-1.0632-3.071-1.0632-1.308 0-2.332.3544-3.072 1.0632-.882.8348-1.323 2.0162-1.323 3.544 0 1.5279.441 2.7093 1.323 3.5441.74.7088 1.764 1.0632 3.072 1.0632 1.307 0 2.331-.3544 3.071-1.0632.882-.8348 1.323-2.0162 1.323-3.5441 0-1.5278-.441-2.7092-1.323-3.544z"/><path d="m112.941 20.8936c0-.5523-.448-1-1-1h-2.662c-.522 0-.945-.4231-.945-.9451 0-.5219.423-.9451.945-.9451h10.065c.522 0 .945.4232.945.9451 0 .522-.423.9451-.945.9451h-2.662c-.552 0-1 .4477-1 1v8.1124c0 .5523-.448 1-1 1h-.741c-.552 0-1-.4477-1-1z"/><path d="m93.8302 19.0034c0-.5522.4477-1 1-1h.7957c.4698 0 .8506.3809.8506.8506v.8035c0 .026.0211.0471.0471.0471.0149 0 .029-.0072.0379-.0191.4851-.652 1.0474-1.1418 1.687-1.4694.8033-.4253 1.7875-.6379 2.9535-.6379 2.048 0 3.631.5276 4.749 1.583 1.118 1.1183 1.677 2.6856 1.677 4.7018 0 2.1579-.582 3.8197-1.748 4.9853-1.055 1.0553-2.607 1.583-4.654 1.583-1.198 0-2.1821-.189-2.9539-.567-.6085-.3043-1.7011.1257-1.7011.806v2.7067c0 .5523-.4477 1-1 1h-.7408c-.5523 0-1-.4477-1-1zm6.8048.4177c-1.1815 0-2.1345.3623-2.859 1.0868-.8506.8506-1.2759 2.0241-1.2759 3.5205 0 1.4491.4017 2.5989 1.205 3.4495.7403.7403 1.7169 1.1105 2.9299 1.1105 1.244 0 2.237-.3859 2.977-1.1577.756-.8191 1.134-1.9768 1.134-3.4732 0-1.4807-.378-2.6148-1.134-3.4023-.756-.7561-1.749-1.1341-2.977-1.1341z"/><path d="m87.3213 24.241c0-.0824-.0985-.1273-.1642-.0776-.2342.177-.4788.2974-.7336.3611-.315.063-.8427.1261-1.583.1891l-1.2995.0945c-1.0239.063-1.7405.2126-2.1501.4489-.5198.3623-.7797.8191-.7797 1.3704 0 .567.2205 1.0159.6616 1.3467.378.315 1.0002.4725 1.8665.4725 1.1814 0 2.0792-.2205 2.6935-.6615.9924-.6773 1.4885-1.8587 1.4885-3.5441zm-6.2972-3.6102c-.2637.4853-.6716.964-1.2239.964h-.7555c-.5465 0-1.0095-.4456-.8849-.9777.1486-.6348.4617-1.191.9393-1.6686.9451-.945 2.6383-1.4176 5.0798-1.4176 2.347 0 4.0088.4883 4.9853 1.4649.1103.1103.2048.2284.2836.3544.0945.126.1732.2599.2362.4017.063.126.1182.2441.1654.3544.0473.0945.0867.2205.1182.378s.0551.2757.0709.3544c.0157.0788.0236.2048.0236.378.0157.1733.0236.2836.0236.3308v.3544.3072 4.6309c0 .5463.0623.912.1869 1.097.0291.0434.0635.0832.0996.1209.1275.1332.3155.1997.5641.1997.1997 0 .4253.1641.4253.3638v.7441c0 .3455-.2423.6479-.5854.6885-.2617.031-.5233.0465-.785.0465-.7876 0-1.3546-.1338-1.7012-.4016-.4706-.3439-1.3891-.5854-1.8692-.2549-.2681.1845-.5507.3324-.8479.4439-.6615.2678-1.6539.4017-2.977.4017-1.5594 0-2.7092-.2599-3.4496-.7797-.945-.6458-1.4176-1.5831-1.4176-2.8117 0-.9135.2914-1.6617.8742-2.2445.5041-.5356 1.2601-.9136 2.2682-1.1341.3466-.0788 1.2129-.1812 2.599-.3072l1.3468-.1181c1.1498-.0945 1.8744-.2836 2.1737-.5671.252-.2205.378-.5277.378-.9214 0-.6458-.3229-1.1578-.9687-1.5358-.5828-.2993-1.3231-.4489-2.221-.4489-1.0711 0-1.8823.1654-2.4336.4962-.3234.1859-.5638.4238-.7212.7135z"/><path d="m65.1798 18.5541c0 .8682 1.0304 1.3239 1.6727.7398l6.1217-5.5667c.184-.1674.4239-.2602.6727-.2602h.6204c.9197 0 1.3517 1.1369.6641 1.7477l-5.9011 5.2418c-.4337.3853-.4496 1.0577-.0345 1.4631l6.5243 6.371c.6415.6264.198 1.7154-.6986 1.7154h-.9742c-.2696 0-.5278-.1089-.716-.3019l-6.2355-6.3963c-.6262-.6423-1.716-.199-1.716.6981v5.0001c0 .5523-.4478 1-1 1h-.9298c-.5523 0-1-.4477-1-1v-14.539c0-.5522.4477-1 1-1h.9298c.5522 0 1 .4478 1 1z"/></g></svg>