<svg width="32" height="32" viewBox="0 0 32 32" fill="none" xmlns="http://www.w3.org/2000/svg">
<path d="M30.0521 7.3544C30.2216 7.36306 30.386 7.41481 30.53 7.50463C30.6737 7.59567 30.7919 7.72174 30.8733 7.87111C30.9546 8.02049 30.9965 8.18817 30.995 8.35818V23.3458C30.9949 23.4373 30.9822 23.5278 30.9576 23.6151C30.9321 23.7063 30.8936 23.7936 30.8429 23.8747C30.7437 24.0333 30.6019 24.1609 30.4337 24.243C27.7863 25.5352 25.4563 26 23.3199 26C20.5516 26 18.1027 25.2175 15.699 24.4494L15.6949 24.4479L15.6825 24.4439C11.6296 23.1483 7.79956 21.9237 2.43872 24.5454C2.28626 24.6199 2.11743 24.6543 1.948 24.6454C1.90735 24.6433 1.86707 24.6386 1.82727 24.6317C1.75928 24.6197 1.69275 24.6008 1.62866 24.5753C1.60132 24.5643 1.57446 24.5522 1.5481 24.5389C1.52161 24.5255 1.49561 24.5107 1.47022 24.4949C1.40576 24.4546 1.34644 24.4074 1.29309 24.354C1.2273 24.2884 1.17078 24.2136 1.12537 24.1317C1.07825 24.0466 1.04395 23.9555 1.02319 23.8613C1.00781 23.7911 1 23.7192 1 23.6468V8.65937C0.999879 8.5499 1.0177 8.44177 1.05237 8.33901C1.07752 8.26469 1.11133 8.1933 1.15344 8.1263C1.19299 8.06345 1.23914 8.0056 1.29102 7.95349C1.37097 7.87307 1.46436 7.80656 1.56751 7.75713C7.65503 4.78534 12.0613 6.19124 16.3113 7.5521L16.3182 7.5543C20.3669 8.85085 24.198 10.0776 29.5613 7.45471C29.7137 7.38015 29.8826 7.34561 30.0521 7.3544Z" fill="#E7B8A4"/>
<circle cx="16" cy="16" r="3" fill="#F9DFBC"/>
<path d="M30.53 7.50466C30.386 7.41483 30.2216 7.36311 30.0521 7.35437C29.8826 7.34562 29.7137 7.38014 29.5613 7.45467C24.195 10.079 20.3625 8.84932 16.3113 7.55215C12.0613 6.19124 7.655 4.78534 1.5675 7.75709C1.39741 7.83866 1.25387 7.96666 1.15345 8.12632C1.05304 8.28598 0.999837 8.47077 1 8.65937V23.6468C0.999976 23.8165 1.04312 23.9833 1.12538 24.1317C1.20764 24.28 1.3263 24.405 1.4702 24.4949C1.6141 24.5848 1.77851 24.6365 1.94794 24.6454C2.11738 24.6542 2.28628 24.6198 2.43875 24.5454C7.805 21.921 11.6375 23.1507 15.695 24.4479C18.1 25.2164 20.55 26 23.32 26C25.4562 26 27.7863 25.5351 30.4338 24.2429C30.6019 24.1609 30.7437 24.0333 30.8429 23.8746C30.9421 23.716 30.9948 23.5327 30.995 23.3457V8.35819C30.9965 8.18813 30.9546 8.02049 30.8732 7.87113C30.7919 7.72177 30.6737 7.59564 30.53 7.50466ZM29 22.7096C23.925 24.9803 20.2188 23.7956 16.305 22.5446C13.9 21.7761 11.45 20.9925 8.68 20.9925C6.73388 21.002 4.80755 21.3837 3.005 22.1172V9.29546C8.08 7.02478 11.7863 8.20948 15.7 9.46042C19.6138 10.7114 23.6425 12.0035 29 9.89031V22.7096ZM16 12.0035C15.2089 12.0035 14.4355 12.2381 13.7777 12.6775C13.1199 13.1169 12.6072 13.7414 12.3045 14.4722C12.0017 15.2029 11.9225 16.007 12.0769 16.7827C12.2312 17.5584 12.6122 18.271 13.1716 18.8302C13.731 19.3895 14.4437 19.7704 15.2196 19.9247C15.9956 20.079 16.7998 19.9998 17.5307 19.6971C18.2616 19.3944 18.8864 18.8819 19.3259 18.2242C19.7654 17.5666 20 16.7934 20 16.0025C20 14.9419 19.5786 13.9248 18.8284 13.1748C18.0783 12.4248 17.0609 12.0035 16 12.0035ZM16 18.002C15.6044 18.002 15.2178 17.8847 14.8889 17.665C14.56 17.4453 14.3036 17.1331 14.1522 16.7677C14.0009 16.4023 13.9613 16.0003 14.0384 15.6124C14.1156 15.2246 14.3061 14.8683 14.5858 14.5887C14.8655 14.309 15.2219 14.1186 15.6098 14.0414C15.9978 13.9643 16.3999 14.0039 16.7654 14.1552C17.1308 14.3066 17.4432 14.5628 17.6629 14.8917C17.8827 15.2205 18 15.6071 18 16.0025C18 16.5328 17.7893 17.0414 17.4142 17.4164C17.0391 17.7914 16.5304 18.002 16 18.002ZM7 12.0035V18.002C7 18.2672 6.89464 18.5215 6.70711 18.7089C6.51957 18.8964 6.26522 19.0018 6 19.0018C5.73478 19.0018 5.48043 18.8964 5.29289 18.7089C5.10536 18.5215 5 18.2672 5 18.002V12.0035C5 11.7384 5.10536 11.4841 5.29289 11.2966C5.48043 11.1091 5.73478 11.0038 6 11.0038C6.26522 11.0038 6.51957 11.1091 6.70711 11.2966C6.89464 11.4841 7 11.7384 7 12.0035ZM25 20.0015V14.003C25 13.7379 25.1054 13.4836 25.2929 13.2961C25.4804 13.1086 25.7348 13.0033 26 13.0033C26.2652 13.0033 26.5196 13.1086 26.7071 13.2961C26.8946 13.4836 27 13.7379 27 14.003V20.0015C27 20.2667 26.8946 20.521 26.7071 20.7084C26.5196 20.8959 26.2652 21.0013 26 21.0013C25.7348 21.0013 25.4804 20.8959 25.2929 20.7084C25.1054 20.521 25 20.2667 25 20.0015Z" fill="#B44532"/>
</svg>
