<svg width="32" height="32" viewBox="0 0 32 32" fill="none" xmlns="http://www.w3.org/2000/svg">
<path d="M18.6687 4.52746L29.6 23.5112C29.8624 23.9613 30.0005 24.473 30.0001 24.994C29.9997 25.5151 29.8607 26.0266 29.5975 26.4762C29.328 26.9437 28.9391 27.3312 28.4706 27.599C28.0021 27.8667 27.4708 28.0051 26.9312 28H5.06875C4.52873 28.0056 3.99694 27.8674 3.52795 27.5996C3.05896 27.3318 2.66966 26.9441 2.4 26.4762C2.13717 26.0264 1.99866 25.5147 1.99866 24.9937C1.99866 24.4727 2.13717 23.9611 2.4 23.5112L13.3312 4.52746C13.6044 4.06237 13.9944 3.67673 14.4625 3.40879C14.9306 3.14084 15.4606 2.99988 16 2.99988C16.5394 2.99988 17.0694 3.14084 17.5375 3.40879C18.0056 3.67673 18.3956 4.06237 18.6687 4.52746Z" fill="#FFC000"/>
<path fill-rule="evenodd" clip-rule="evenodd" d="M27.8668 24.5092L16.9409 5.53479C16.8444 5.37272 16.7077 5.23828 16.544 5.14455C16.3783 5.04975 16.1908 4.99988 16 4.99988C15.8092 4.99988 15.6217 5.04975 15.456 5.14455C15.2923 5.23828 15.1555 5.37273 15.0591 5.5348L4.1269 24.5202C4.04294 24.6639 3.99866 24.8273 3.99866 24.9937C3.99866 25.1601 4.0429 25.3236 4.12686 25.4673L4.13285 25.4775C4.22532 25.638 4.35879 25.771 4.51962 25.8628C4.68043 25.9546 4.86279 26.002 5.04798 26.0001L5.06875 26H26.9312L26.9504 26.0001C27.1354 26.0018 27.3176 25.9544 27.4783 25.8626C27.6389 25.7707 27.7723 25.6379 27.8647 25.4775L27.8714 25.4658C27.9555 25.3222 28 25.1588 28.0001 24.9924C28.0002 24.8259 27.9561 24.6625 27.8723 24.5187L27.8668 24.5092ZM13.3312 4.52746C13.6044 4.06237 13.9944 3.67673 14.4625 3.40879C14.9306 3.14084 15.4606 2.99988 16 2.99988C16.5394 2.99988 17.0694 3.14084 17.5375 3.40879C18.0056 3.67673 18.3956 4.06237 18.6687 4.52746L29.6 23.5112C29.8624 23.9613 30.0005 24.473 30.0001 24.994C29.9997 25.5151 29.8607 26.0266 29.5975 26.4762C29.328 26.9437 28.9391 27.3312 28.4706 27.599C28.0021 27.8667 27.4708 28.0051 26.9312 28H5.06875C4.52873 28.0056 3.99694 27.8674 3.52795 27.5996C3.05896 27.3318 2.66966 26.9441 2.4 26.4762C2.13717 26.0264 1.99866 25.5147 1.99866 24.9937C1.99866 24.4727 2.13717 23.9611 2.4 23.5112L13.3312 4.52746Z" fill="black" fill-opacity="0.32"/>
<path d="M17 12C17 11.4477 16.5523 11 16 11C15.4477 11 15 11.4477 15 12V17C15 17.5523 15.4477 18 16 18C16.5523 18 17 17.5523 17 17V12Z" fill="#1F1F1F"/>
<path d="M16 23C16.8284 23 17.5 22.3284 17.5 21.5C17.5 20.6716 16.8284 20 16 20C15.1716 20 14.5 20.6716 14.5 21.5C14.5 22.3284 15.1716 23 16 23Z" fill="#1F1F1F"/>
</svg>
