<svg width="32" height="32" viewBox="0 0 32 32" fill="none" xmlns="http://www.w3.org/2000/svg">
<path d="M27.16 8.515L29.97 19.7575C29.99 19.8368 30 19.9182 30 20V24C30 24.5304 29.7893 25.0391 29.4142 25.4142C29.0391 25.7893 28.5304 26 28 26H4C3.46957 26 2.96086 25.7893 2.58579 25.4142C2.21071 25.0391 2 24.5304 2 24V20C1.99996 19.9182 2.01004 19.8368 2.03 19.7575L4.84 8.515C4.9482 8.08211 5.19806 7.69784 5.54982 7.42332C5.90158 7.1488 6.33504 6.99979 6.78125 7H8V5C8 4.46957 8.21071 3.96086 8.58579 3.58579C8.96086 3.21071 9.46957 3 10 3H15C15.5304 3 16.0391 3.21071 16.4142 3.58579C16.7893 3.96086 17 4.46957 17 5V7H25.2188C25.665 6.99979 26.0984 7.1488 26.4502 7.42332C26.8019 7.69784 27.0518 8.08211 27.16 8.515Z" fill="#857AC5"/>
<path d="M4 21V24H28V21H4Z" fill="#5A5386"/>
<rect x="10" y="5" width="5" height="2" fill="#0087CC"/>
<path d="M8.29289 11.2929C8.10536 11.4804 8 11.7348 8 12C8 12.2652 8.10536 12.5196 8.29289 12.7071C8.48043 12.8946 8.73478 13 9 13H11C11.2652 13 11.5196 12.8946 11.7071 12.7071C11.8946 12.5196 12 12.2652 12 12C12 11.7348 11.8946 11.4804 11.7071 11.2929C11.5196 11.1054 11.2652 11 11 11H9C8.73478 11 8.48043 11.1054 8.29289 11.2929Z" fill="#ACA5D8"/>
<path d="M14.2929 11.2929C14.1054 11.4804 14 11.7348 14 12C14 12.2652 14.1054 12.5196 14.2929 12.7071C14.4804 12.8946 14.7348 13 15 13H17C17.2652 13 17.5196 12.8946 17.7071 12.7071C17.8946 12.5196 18 12.2652 18 12C18 11.7348 17.8946 11.4804 17.7071 11.2929C17.5196 11.1054 17.2652 11 17 11H15C14.7348 11 14.4804 11.1054 14.2929 11.2929Z" fill="#ACA5D8"/>
<path d="M20.2929 11.2929C20.1054 11.4804 20 11.7348 20 12C20 12.2652 20.1054 12.5196 20.2929 12.7071C20.4804 12.8946 20.7348 13 21 13H23C23.2652 13 23.5196 12.8946 23.7071 12.7071C23.8946 12.5196 24 12.2652 24 12C24 11.7348 23.8946 11.4804 23.7071 11.2929C23.5196 11.1054 23.2652 11 23 11H21C20.7348 11 20.4804 11.1054 20.2929 11.2929Z" fill="#ACA5D8"/>
<path d="M8.29289 15.2929C8.10536 15.4804 8 15.7348 8 16C8 16.2652 8.10536 16.5196 8.29289 16.7071C8.48043 16.8946 8.73478 17 9 17H11C11.2652 17 11.5196 16.8946 11.7071 16.7071C11.8946 16.5196 12 16.2652 12 16C12 15.7348 11.8946 15.4804 11.7071 15.2929C11.5196 15.1054 11.2652 15 11 15H9C8.73478 15 8.48043 15.1054 8.29289 15.2929Z" fill="#ACA5D8"/>
<path d="M14.2929 15.2929C14.1054 15.4804 14 15.7348 14 16C14 16.2652 14.1054 16.5196 14.2929 16.7071C14.4804 16.8946 14.7348 17 15 17H17C17.2652 17 17.5196 16.8946 17.7071 16.7071C17.8946 16.5196 18 16.2652 18 16C18 15.7348 17.8946 15.4804 17.7071 15.2929C17.5196 15.1054 17.2652 15 17 15H15C14.7348 15 14.4804 15.1054 14.2929 15.2929Z" fill="#ACA5D8"/>
<path d="M20.2929 15.2929C20.1054 15.4804 20 15.7348 20 16C20 16.2652 20.1054 16.5196 20.2929 16.7071C20.4804 16.8946 20.7348 17 21 17H23C23.2652 17 23.5196 16.8946 23.7071 16.7071C23.8946 16.5196 24 16.2652 24 16C24 15.7348 23.8946 15.4804 23.7071 15.2929C23.5196 15.1054 23.2652 15 23 15H21C20.7348 15 20.4804 15.1054 20.2929 15.2929Z" fill="#ACA5D8"/>
<path d="M29.97 19.7575L27.16 8.515C27.0518 8.08211 26.8019 7.69784 26.4502 7.42332C26.0984 7.1488 25.665 6.99979 25.2188 7H17V5C17 4.46957 16.7893 3.96086 16.4142 3.58579C16.0391 3.21071 15.5304 3 15 3H10C9.46957 3 8.96086 3.21071 8.58579 3.58579C8.21071 3.96086 8 4.46957 8 5V7H6.78125C6.33504 6.99979 5.90158 7.1488 5.54982 7.42332C5.19806 7.69784 4.9482 8.08211 4.84 8.515L2.03 19.7575C2.01004 19.8368 1.99996 19.9182 2 20V24C2 24.5304 2.21071 25.0391 2.58579 25.4142C2.96086 25.7893 3.46957 26 4 26H28C28.5304 26 29.0391 25.7893 29.4142 25.4142C29.7893 25.0391 30 24.5304 30 24V20C30 19.9182 29.99 19.8368 29.97 19.7575ZM10 5H15V7H10V5ZM6.78125 9H25.2188L27.7188 19H4.28125L6.78125 9ZM4 24V21H28V24H4Z" fill="black" fill-opacity="0.32"/>
</svg>
