<svg width="32" height="32" viewBox="0 0 32 32" fill="none" xmlns="http://www.w3.org/2000/svg">
<path d="M3 7C3 5.89543 3.89543 5 5 5H27C28.1046 5 29 5.89543 29 7V23C29 24.1046 28.1046 25 27 25H5C3.89543 25 3 24.1046 3 23V7Z" fill="#D9D9D9"/>
<path d="M3 7C3 5.89543 3.89543 5 5 5H27C28.1046 5 29 5.89543 29 7V23C29 24.1046 28.1046 25 27 25H5C3.89543 25 3 24.1046 3 23V7Z" fill="#D6ECF7"/>
<path fill-rule="evenodd" clip-rule="evenodd" d="M27 7H5L5 23H27V7ZM5 5C3.89543 5 3 5.89543 3 7V23C3 24.1046 3.89543 25 5 25H27C28.1046 25 29 24.1046 29 23V7C29 5.89543 28.1046 5 27 5H5Z" fill="#016AA2"/>
<path d="M21 19C20.4477 19 20 19.4477 20 20V28C20 28.3565 20.1898 28.686 20.4981 28.8649C20.8064 29.0438 21.1866 29.0451 21.4961 28.8682L24.5 27.1518L27.5039 28.8682C27.8134 29.0451 28.1936 29.0438 28.5019 28.8649C28.8102 28.686 29 28.3565 29 28V20C29 19.4477 28.5523 19 28 19H21Z" fill="#FF3B38"/>
<path fill-rule="evenodd" clip-rule="evenodd" d="M20 20C20 19.4477 20.4477 19 21 19H28C28.5523 19 29 19.4477 29 20V28C29 28.3565 28.8102 28.686 28.5019 28.8649C28.1936 29.0438 27.8134 29.0451 27.5039 28.8682L24.5 27.1518L21.4961 28.8682C21.1866 29.0451 20.8064 29.0438 20.4981 28.8649C20.1898 28.686 20 28.3565 20 28V20ZM22 21V26.2768L24.0039 25.1318C24.3113 24.9561 24.6887 24.9561 24.9961 25.1318L27 26.2768V21H22Z" fill="black" fill-opacity="0.32"/>
<circle cx="24.5" cy="15.5" r="6.5" fill="#FFC000"/>
<path fill-rule="evenodd" clip-rule="evenodd" d="M24.5 20C26.9853 20 29 17.9853 29 15.5C29 13.0147 26.9853 11 24.5 11C22.0147 11 20 13.0147 20 15.5C20 17.9853 22.0147 20 24.5 20ZM24.5 22C28.0899 22 31 19.0899 31 15.5C31 11.9101 28.0899 9 24.5 9C20.9101 9 18 11.9101 18 15.5C18 19.0899 20.9101 22 24.5 22Z" fill="black" fill-opacity="0.32"/>
<path d="M15.7071 17.7071C15.8946 17.5196 16 17.2652 16 17C16 16.7348 15.8946 16.4804 15.7071 16.2929C15.5196 16.1054 15.2652 16 15 16H9C8.73478 16 8.48043 16.1054 8.29289 16.2929C8.10536 16.4804 8 16.7348 8 17C8 17.2652 8.10536 17.5196 8.29289 17.7071C8.48043 17.8946 8.73478 18 9 18H15C15.2652 18 15.5196 17.8946 15.7071 17.7071Z" fill="#016AA2"/>
<path d="M9 12H15C15.2652 12 15.5196 12.1054 15.7071 12.2929C15.8946 12.4804 16 12.7348 16 13C16 13.2652 15.8946 13.5196 15.7071 13.7071C15.5196 13.8946 15.2652 14 15 14H9C8.73478 14 8.48043 13.8946 8.29289 13.7071C8.10536 13.5196 8 13.2652 8 13C8 12.7348 8.10536 12.4804 8.29289 12.2929C8.48043 12.1054 8.73478 12 9 12Z" fill="#016AA2"/>
</svg>
