<svg width="32" height="32" viewBox="0 0 32 32" fill="none" xmlns="http://www.w3.org/2000/svg">
<path d="M19.0513 11.07L7.85128 22.07C7.57077 22.3456 7.19326 22.5 6.80003 22.5C6.40679 22.5 6.02928 22.3456 5.74878 22.07L0.948778 17.3563C0.808181 17.2182 0.696153 17.0538 0.619089 16.8725C0.542025 16.6911 0.501435 16.4964 0.499635 16.2994C0.496002 15.9014 0.650594 15.5183 0.929403 15.2344C1.06745 15.0938 1.23185 14.9818 1.4132 14.9047C1.59454 14.8276 1.78929 14.7871 1.98633 14.7853C2.38426 14.7816 2.76733 14.9362 3.05128 15.215L6.80128 18.8975L16.95 8.93003C17.2338 8.65122 17.6167 8.49656 18.0145 8.50007C18.4123 8.50359 18.7925 8.66499 19.0713 8.94877C19.3501 9.23256 19.5047 9.61547 19.5012 10.0133C19.4977 10.4111 19.3363 10.7912 19.0525 11.07H19.0513ZM31.07 8.94502C30.9319 8.80395 30.7673 8.69153 30.5856 8.6142C30.404 8.53688 30.2088 8.49619 30.0114 8.49444C29.814 8.4927 29.6182 8.52995 29.4352 8.60405C29.2522 8.67816 29.0856 8.78766 28.945 8.92628L18.8 18.8975L17.815 17.93C17.5312 17.6512 17.1483 17.4966 16.7505 17.5001C16.3527 17.5036 15.9726 17.665 15.6938 17.9488C15.415 18.2326 15.2603 18.6155 15.2638 19.0133C15.2673 19.4111 15.4287 19.7912 15.7125 20.07L17.7488 22.07C18.0293 22.3456 18.4068 22.5 18.8 22.5C19.1933 22.5 19.5708 22.3456 19.8513 22.07L31.0513 11.07C31.1918 10.932 31.3037 10.7676 31.3807 10.5863C31.4577 10.405 31.4982 10.2103 31.5 10.0133C31.5017 9.81631 31.4646 9.62092 31.3909 9.43827C31.3171 9.25562 31.2081 9.08929 31.07 8.94877V8.94502Z" fill="#2B9927"/>
</svg>
