<svg width="32" height="32" viewBox="0 0 32 32" fill="none" xmlns="http://www.w3.org/2000/svg">
<path d="M26.7313 15.6825L12.7313 30.6825C12.5829 30.8408 12.3871 30.9466 12.1733 30.9839C11.9596 31.0211 11.7395 30.9879 11.5463 30.8891C11.3531 30.7903 11.1973 30.6314 11.1024 30.4363C11.0075 30.2412 10.9786 30.0205 11.02 29.8075L12.8525 20.6412L5.6488 17.9362C5.49409 17.8784 5.35612 17.7831 5.24722 17.6589C5.13833 17.5347 5.0619 17.3854 5.02475 17.2245C4.98761 17.0635 4.99092 16.8959 5.03438 16.7365C5.07783 16.5772 5.16009 16.431 5.2738 16.3112L19.2738 1.31124C19.4222 1.15291 19.618 1.04713 19.8317 1.00986C20.0455 0.972589 20.2656 1.00586 20.4588 1.10464C20.652 1.20342 20.8078 1.36236 20.9027 1.55746C20.9976 1.75257 21.0265 1.97326 20.985 2.18624L19.1475 11.3625L26.3513 14.0637C26.5049 14.122 26.6417 14.2172 26.7498 14.3409C26.8578 14.4646 26.9337 14.613 26.9708 14.773C27.0079 14.933 27.005 15.0997 26.9623 15.2583C26.9197 15.417 26.8386 15.5626 26.7263 15.6825H26.7313Z" fill="#FFC000"/>
<path fill-rule="evenodd" clip-rule="evenodd" d="M12.8525 20.6412L11.02 29.8075C10.9786 30.0205 11.0075 30.2412 11.1024 30.4363C11.1973 30.6314 11.3531 30.7903 11.5463 30.8891C11.7395 30.9879 11.9596 31.0211 12.1733 30.9839C12.3871 30.9466 12.5829 30.8408 12.7313 30.6825L26.7313 15.6825H26.7263C26.7271 15.6817 26.7278 15.6808 26.7286 15.68C26.7295 15.679 26.7304 15.6781 26.7313 15.6771C26.841 15.5583 26.9203 15.4146 26.9623 15.2583C27.0049 15.0997 27.0079 14.933 26.9708 14.773C26.9337 14.613 26.8578 14.4646 26.7498 14.3409C26.7437 14.3339 26.7375 14.3271 26.7313 14.3203C26.7296 14.3185 26.728 14.3167 26.7263 14.3149C26.6222 14.2038 26.4939 14.1179 26.3513 14.0637L19.1475 11.3625L20.985 2.18624C21.0265 1.97326 20.9976 1.75257 20.9027 1.55746C20.8078 1.36236 20.652 1.20342 20.4588 1.10464C20.2656 1.00586 20.0455 0.972589 19.8317 1.00986C19.618 1.04713 19.4222 1.15291 19.2738 1.31124L5.2738 16.3112C5.16009 16.431 5.07783 16.5772 5.03438 16.7365C4.99092 16.8959 4.98761 17.0635 5.02475 17.2245C5.0619 17.3854 5.13833 17.5347 5.24722 17.6589C5.35612 17.7831 5.49409 17.8784 5.6488 17.9362L12.8525 20.6412ZM18.3314 5.25211L7.75032 16.589L13.5556 18.7689C14.4732 19.1134 15.0059 20.0722 14.8137 21.0333L13.6722 26.7432L24.2487 15.4113L18.4453 13.2352C17.527 12.8908 16.9939 11.9314 17.1865 10.9698L18.3314 5.25211Z" fill="black" fill-opacity="0.32"/>
</svg>
