<svg fill="none" height="41" viewBox="0 0 160 41" width="160" xmlns="http://www.w3.org/2000/svg"><g fill="#fff"><path d="m37.5 30.6653h1.25c.6904 0 1.25-.5597 1.25-1.25v-17.5c0-.6904-.5596-1.25-1.25-1.25h-1.25z" opacity=".32"/><path d="m34.375 33.1653h1.25c.6904 0 1.25-.5597 1.25-1.25v-22.50002c0-.69035-.5596-1.25-1.25-1.25h-1.25z" opacity=".48"/><path d="m0 3.16528c0-1.38071 1.11929-2.499997 2.5-2.499997h22.2049c1.8585 0 3.0672 1.955777 2.2361 3.618037l-7.632 15.26388c-.3519.7039-.3519 1.5323 0 2.2361l7.632 15.2639c.8311 1.6623-.3776 3.6181-2.2361 3.6181h-22.2049c-1.38071 0-2.5-1.1193-2.5-2.5z"/><path clip-rule="evenodd" d="m26.875 35.6653h4.875c1.1046 0 2-.8954 2-2v-26.00002c0-1.10457-.8954-2-2-2h-4.875l-6.941 13.88192c-.3519.7039-.3519 1.5323 0 2.2361z" fill-rule="evenodd" opacity=".64"/><path d="m156.274 20.864c0-.0687-.082-.1062-.137-.0647-.195.1475-.399.2479-.611.3009-.263.0525-.702.1051-1.319.1576l-1.083.0787c-.853.0525-1.451.1772-1.792.3741-.433.3019-.65.6826-.65 1.142 0 .4725.184.8466.552 1.1223.315.2625.833.3938 1.555.3938.985 0 1.733-.1838 2.245-.5513.827-.5645 1.24-1.5489 1.24-2.9534zm-5.159-3.1498c-.32.4501-.723.9446-1.275.9446h-.299c-.546 0-1.014-.4492-.86-.9735.137-.4635.384-.8741.741-1.2317.788-.7876 2.199-1.1814 4.233-1.1814 1.956 0 3.341.4069 4.155 1.2208.092.0918.171.1903.236.2953.079.105.145.2166.197.3347.053.105.098.2035.138.2953.039.0788.072.1838.098.3151.027.1312.046.2297.059.2953.014.0656.02.1707.02.315.013.1444.02.2363.02.2757v.2953.256 3.8591c0 .4447.049.7458.148.9032.028.0442.063.0843.1.121.106.1048.259.1571.461.1571.166 0 .354.1368.354.3032v.6201c0 .2879-.202.5399-.488.5737-.218.0259-.436.0388-.654.0388-.656 0-1.129-.1116-1.418-.3347-.392-.2866-1.157-.4878-1.557-.2124-.224.1537-.459.277-.707.3699-.551.2232-1.378.3347-2.481.3347-1.299 0-2.257-.2166-2.874-.6497-.788-.5382-1.182-1.3192-1.182-2.343 0-.7614.243-1.3849.729-1.8705.42-.4463 1.05-.7613 1.89-.9451.289-.0656 1.011-.151 2.166-.256l1.122-.0984c.958-.0788 1.562-.2363 1.811-.4726.21-.1837.315-.4397.315-.7678 0-.5382-.269-.9648-.807-1.2798-.485-.2494-1.102-.3741-1.851-.3741-.892 0-1.568.1378-2.028.4134-.215.1236-.385.2747-.512.4534z"/><path d="m140.14 17.8201c0 .8735 1.041 1.3272 1.681.7323l2.851-2.6519c.162-.1507.375-.2345.597-.2345.799 0 1.18.9826.591 1.5221l-2.661 2.4347c-.422.386-.435 1.0466-.028 1.4487l2.918 2.8857c.635.6283.173 1.711-.721 1.711-.269 0-.53-.1088-.718-.3016l-2.795-2.8629c-.626-.6418-1.715-.1983-1.715.6984v1.4661c0 .5522-.448 1-1 1h-.284c-.553 0-1-.4478-1-1v-8.0022c0-.5523.447-1 1-1h.284c.552 0 1 .4477 1 1z"/><path d="m132.792 23.4478c.272-.4267.668-.8314 1.174-.8314h.365c.593 0 1.072.5263.845 1.0746-.127.3042-.294.5827-.502.8353-.42.525-.959.9057-1.615 1.1419-.682.2494-1.752.3741-3.209.3741-.998 0-1.884-.0918-2.658-.2756-.762-.1838-1.425-.5579-1.989-1.1223-.906-.9057-1.358-2.1855-1.358-3.8394 0-1.7327.479-3.0781 1.437-4.0363.984-.9845 2.468-1.4767 4.45-1.4767 2.047 0 3.57.4988 4.568 1.4964.866.8926 1.299 2.2446 1.299 4.056 0 .1631-.132.2953-.295.2953h-8.939c-.066 0-.118.0529-.118.1181 0 1.0108.269 1.8049.807 2.3824.367.3676.768.6038 1.201.7089.433.105.958.1575 1.575.1575 1.037 0 1.785-.1313 2.245-.3938.309-.1786.548-.4002.717-.665zm-6.311-4.6815c-.206.5375.27 1.0345.846 1.0345h4.843c.562 0 1.037-.4744.871-1.0124-.152-.4963-.415-.907-.789-1.2321-.551-.4857-1.392-.7285-2.52-.7285-1.037 0-1.858.2625-2.462.7875-.358.3282-.622.7119-.789 1.151z"/><path d="m117.095 18.2412c0-.5523-.448-1-1-1h-2.052c-.435 0-.788-.3527-.788-.7876 0-.435.353-.7876.788-.7876h8.388c.435 0 .787.3526.787.7876 0 .4349-.352.7876-.787.7876h-2.052c-.553 0-1 .4477-1 1v6.427c0 .5522-.448 1-1 1h-.284c-.553 0-1-.4478-1-1z"/><path d="m111.174 16.8474c.971.9714 1.457 2.2446 1.457 3.8198 0 1.5751-.486 2.8483-1.457 3.8197-1.037 1.0369-2.573 1.5554-4.608 1.5554-2.034 0-3.57-.5185-4.607-1.5554-.971-.9714-1.457-2.2446-1.457-3.8197 0-1.5752.486-2.8484 1.457-3.8198 1.037-1.0369 2.573-1.5554 4.607-1.5554 2.035 0 3.571.5185 4.608 1.5554zm-2.048.8664c-.617-.5907-1.47-.886-2.56-.886-1.089 0-1.942.2953-2.559.886-.735.6957-1.103 1.6801-1.103 2.9534 0 1.2732.368 2.2577 1.103 2.9534.617.5906 1.47.886 2.559.886 1.09 0 1.943-.2954 2.56-.886.735-.6957 1.102-1.6802 1.102-2.9534 0-1.2733-.367-2.2577-1.102-2.9534z"/><path d="m94.1176 18.2412c0-.5523-.4478-1-1-1h-2.0519c-.4349 0-.7875-.3527-.7875-.7876 0-.435.3526-.7876.7875-.7876h8.3877c.4349 0 .7876.3526.7876.7876 0 .4349-.3527.7876-.7876.7876h-2.0519c-.5523 0-1 .4477-1 1v6.427c0 .5522-.4477 1-1 1h-.2839c-.5523 0-1-.4478-1-1z"/><path d="m78.1919 16.6662c0-.5523.4477-1 1-1h.4963c.3915 0 .7089.3173.7089.7088v.6695c0 .0217.0175.0393.0392.0393.0125 0 .0242-.006.0317-.016.4042-.5433.8728-.9514 1.4058-1.2244.6694-.3544 1.4898-.5316 2.4611-.5316 1.7064 0 3.0256.4397 3.9576 1.3191.9319.932 1.3979 2.2381 1.3979 3.9182 0 1.7983-.4857 3.1831-1.457 4.1544-.8795.8795-2.1724 1.3192-3.8788 1.3192-.9976 0-1.818-.1575-2.4612-.4725-.507-.2535-1.4176.1048-1.4176.6717v2.0889c0 .5523-.4477 1-1 1h-.2839c-.5523 0-1-.4477-1-1zm5.6705.1813c-.9845 0-1.7786.3019-2.3824.9057-.7088.7089-1.0633 1.6868-1.0633 2.9337 0 1.2076.3348 2.1659 1.0042 2.8747.6169.6169 1.4308.9254 2.4415.9254 1.0369 0 1.8639-.3216 2.4808-.9648.6301-.6826.9451-1.6473.9451-2.8943 0-1.2339-.315-2.179-.9451-2.8353-.63-.63-1.457-.9451-2.4808-.9451z"/><path d="m72.7678 20.864c0-.0687-.0821-.1062-.1369-.0648-.1952.1476-.399.248-.6113.301-.2625.0525-.7023.1051-1.3192.1576l-1.0829.0787c-.8532.0525-1.4505.1772-1.7917.3741-.4332.3019-.6498.6826-.6498 1.142 0 .4725.1838.8466.5513 1.1223.315.2625.8335.3938 1.5555.3938.9844 0 1.7326-.1838 2.2445-.5513.827-.5645 1.2405-1.5489 1.2405-2.9534zm-5.1596-3.1498c-.3199.4501-.7224.9446-1.2747.9446h-.2987c-.5465 0-1.0139-.4492-.8598-.9735.1363-.4635.3833-.8741.7409-1.2317.7876-.7876 2.1986-1.1814 4.2332-1.1814 1.9558 0 3.3406.4069 4.1544 1.2208.0919.0918.1707.1903.2363.2953.0788.105.1444.2166.1969.3347.0525.105.0984.2035.1378.2953.0394.0788.0722.1838.0985.3151.0262.1312.0459.2297.059.2953.0132.0656.0197.1707.0197.315.0132.1444.0197.2363.0197.2757v.2953.256 3.8591c0 .4447.0495.7458.1486.9032.0278.0442.0622.0843.0994.121.106.1048.2596.1571.4608.1571.1664 0 .3544.1368.3544.3032v.6201c0 .2879-.2019.5399-.4878.5737-.218.0259-.4361.0388-.6541.0388-.6564 0-1.1289-.1116-1.4177-.3347-.3921-.2866-1.1576-.4878-1.5577-.2124-.2233.1537-.4589.277-.7065.3699-.5513.2232-1.3783.3347-2.4809.3347-1.2995 0-2.2577-.2166-2.8746-.6497-.7876-.5382-1.1814-1.3192-1.1814-2.343 0-.7614.2429-1.3849.7285-1.8705.4201-.4463 1.0501-.7613 1.8902-.9451.2888-.0656 1.0107-.151 2.1658-.256l1.1223-.0984c.9582-.0788 1.562-.2363 1.8114-.4726.21-.1837.315-.4397.315-.7678 0-.5382-.269-.9648-.8072-1.2798-.4857-.2494-1.1026-.3741-1.8508-.3741-.8926 0-1.5686.1378-2.028.4134-.215.1236-.3859.2747-.5129.4534z"/><path d="m54.3165 15.7481c0 .8682 1.0304 1.324 1.6728.7399l4.7748-4.3421c.1841-.1674.4258-.2602.6746-.2602.9197 0 1.3638 1.1369.6762 1.7477l-4.4558 3.958c-.4338.3854-.4497 1.0578-.0346 1.4631l5.0161 4.8983c.6416.6264.198 1.7154-.6986 1.7154h-.3323c-.2696 0-.5278-.1088-.716-.3019l-4.8612-4.9865c-.6262-.6424-1.716-.199-1.716.698v3.5904c0 .5523-.4477 1-1 1h-.4415c-.5523 0-1-.4477-1-1v-11.7825c0-.5522.4477-1 1-1h.4415c.5523 0 1 .4478 1 1z"/></g></svg>