<svg width="32" height="32" viewBox="0 0 32 32" fill="none" xmlns="http://www.w3.org/2000/svg">
<path d="M8.55039 14.5783C8.19515 15.4834 8.00008 16.4689 8.00008 17.5C8.00008 17.8387 8.02116 18.1724 8.06206 18.5H1.17371C2.29717 16.1351 4.70768 14.5 7.50007 14.5C7.85705 14.5 8.20779 14.5267 8.55039 14.5783Z" fill="#5DC6FE"/>
<path d="M8.99178 13.6389C8.66414 14.2323 8.40968 14.8718 8.24057 15.5452C7.99791 15.5154 7.75077 15.5 7.50004 15.5C5.46196 15.5 3.66086 16.5152 2.57491 18.0721C2.25895 18.5251 1.6356 18.6361 1.18263 18.3202C0.729652 18.0042 0.61858 17.3809 0.934541 16.9279C2.37849 14.8578 4.78062 13.5 7.50004 13.5C8.00984 13.5 8.5085 13.5477 8.99178 13.6389Z" fill="#016AA2"/>
<path d="M12.4963 10.306C10.4334 11.3126 8.86768 13.1805 8.26734 15.4415C8.01719 15.48 7.76093 15.5 7.5 15.5C4.73858 15.5 2.5 13.2614 2.5 10.5C2.5 7.73858 4.73858 5.5 7.5 5.5C10.1965 5.5 12.3944 7.63451 12.4963 10.306Z" fill="#F0C087"/>
<path fill-rule="evenodd" clip-rule="evenodd" d="M8.26734 15.4415C8.01719 15.48 7.76093 15.5 7.5 15.5C4.73858 15.5 2.5 13.2614 2.5 10.5C2.5 7.73858 4.73858 5.5 7.5 5.5C10.1965 5.5 12.3944 7.63451 12.4963 10.306C10.4334 11.3126 8.86768 13.1805 8.26734 15.4415ZM10.5 10.5C10.5 12.1569 9.15685 13.5 7.5 13.5C5.84315 13.5 4.5 12.1569 4.5 10.5C4.5 8.84315 5.84315 7.5 7.5 7.5C9.15685 7.5 10.5 8.84315 10.5 10.5Z" fill="black" fill-opacity="0.32"/>
<path d="M23.938 18.5C23.9789 18.1724 24 17.8387 24 17.5C24 16.4689 23.805 15.4834 23.4497 14.5783C23.7923 14.5267 24.143 14.5 24.5 14.5C27.2924 14.5 29.7029 16.1351 30.8264 18.5H23.938Z" fill="#5DC6FE"/>
<path d="M23.7594 15.5452C23.5903 14.8718 23.3358 14.2323 23.0082 13.6389C23.4915 13.5477 23.9901 13.5 24.4999 13.5C27.2193 13.5 29.6215 14.8578 31.0654 16.9279C31.3814 17.3809 31.2703 18.0042 30.8173 18.3202C30.3644 18.6361 29.741 18.5251 29.4251 18.0721C28.3391 16.5152 26.538 15.5 24.4999 15.5C24.2492 15.5 24.0021 15.5154 23.7594 15.5452Z" fill="#016AA2"/>
<path d="M24.5 15.5C27.2614 15.5 29.5 13.2614 29.5 10.5C29.5 7.73858 27.2614 5.5 24.5 5.5C21.8035 5.5 19.6056 7.63451 19.5037 10.306C21.5666 11.3126 23.1323 13.1805 23.7326 15.4415C23.9828 15.48 24.239 15.5 24.5 15.5Z" fill="#F0C087"/>
<path fill-rule="evenodd" clip-rule="evenodd" d="M29.5 10.5C29.5 13.2614 27.2614 15.5 24.5 15.5C24.239 15.5 23.9828 15.48 23.7326 15.4415C23.1323 13.1805 21.5666 11.3126 19.5037 10.306C19.6056 7.63451 21.8035 5.5 24.5 5.5C27.2614 5.5 29.5 7.73858 29.5 10.5ZM27.5 10.5C27.5 12.1569 26.1568 13.5 24.5 13.5C22.8431 13.5 21.5 12.1569 21.5 10.5C21.5 8.84315 22.8431 7.5 24.5 7.5C26.1568 7.5 27.5 8.84315 27.5 10.5Z" fill="black" fill-opacity="0.32"/>
<path d="M23.6016 28H8.39832C9.44811 24.8061 12.4547 22.5 15.9999 22.5C19.5452 22.5 22.5518 24.8061 23.6016 28Z" fill="#5DC6FE"/>
<path fill-rule="evenodd" clip-rule="evenodd" d="M15.9999 23.5C13.2337 23.5 10.8403 25.1045 9.70313 27.4381C9.46119 27.9345 8.8626 28.1409 8.36612 27.8989C7.86965 27.657 7.6633 27.0584 7.90524 26.5619C9.36466 23.5671 12.44 21.5 15.9999 21.5C19.5599 21.5 22.6352 23.5671 24.0947 26.5619C24.3366 27.0584 24.1303 27.657 23.6338 27.8989C23.1373 28.1409 22.5387 27.9345 22.2968 27.4381C21.1596 25.1045 18.7662 23.5 15.9999 23.5Z" fill="#016AA2"/>
<path d="M22 17.5C22 20.8137 19.3137 23.5 16 23.5C12.6863 23.5 10 20.8137 10 17.5C10 14.1863 12.6863 11.5 16 11.5C19.3137 11.5 22 14.1863 22 17.5Z" fill="#F0C087"/>
<path fill-rule="evenodd" clip-rule="evenodd" d="M16 21.5C18.2091 21.5 20 19.7091 20 17.5C20 15.2909 18.2091 13.5 16 13.5C13.7909 13.5 12 15.2909 12 17.5C12 19.7091 13.7909 21.5 16 21.5ZM16 23.5C19.3137 23.5 22 20.8137 22 17.5C22 14.1863 19.3137 11.5 16 11.5C12.6863 11.5 10 14.1863 10 17.5C10 20.8137 12.6863 23.5 16 23.5Z" fill="black" fill-opacity="0.32"/>
</svg>
